<?xml version="1.0" encoding="utf-8"?>
<!-- Generator: Adobe Illustrator 28.1.0, SVG Export Plug-In . SVG Version: 6.00 Build 0)  -->
<svg version="1.1" id="Layer_1" xmlns="http://www.w3.org/2000/svg" xmlns:xlink="http://www.w3.org/1999/xlink" x="0px" y="0px"
	 viewBox="0 0 48 48" style="enable-background:new 0 0 48 48;" xml:space="preserve">
<style type="text/css">
	.st0{clip-path:url(#SVGID_00000015338212725077151970000000985393822261110410_);}
	.st1{fill:#FFFFFF;}
	.st2{fill:#EA2627;}
	.st3{fill:#A6A8AB;}
</style>
<g>
	<defs>
		<circle id="SVGID_1_" cx="24" cy="24" r="24"/>
	</defs>
	<clipPath id="SVGID_00000114761393617106923360000008717468131842902154_">
		<use xlink:href="#SVGID_1_"  style="overflow:visible;"/>
	</clipPath>
	<g style="clip-path:url(#SVGID_00000114761393617106923360000008717468131842902154_);">
		<circle class="st1" cx="24" cy="24" r="24.1"/>
		<g id="XMLID_00000122696239965572127330000003842151294828572092_">
			<g id="XMLID_00000151505732695155822730000017406986885662621876_">
				<path id="XMLID_00000047037639460652237260000009353246058799775627_" class="st2" d="M48.1,24.1C48.1,10.7,37.3-0.1,24-0.1
					C10.7-0.1-0.1,10.7-0.1,24.1c0,12.1,8.8,22.1,20.4,23.9c0,0,0,0,0,0c0.2,0,0.3,0,0.5,0.1c0.4-0.8,1.9-3.9,1.9-8.8h0
					c0-3.7-1.6-5.1-4.2-4.7s-6.5,1.7-9.4,0.7c0,0-1.3-0.6-2.3-2.2c-1.4-2.7-2.2-5.8-2.2-9C4.5,13.3,13.2,4.5,24,4.5
					c10.7,0,19.5,8.8,19.5,19.6c0,2.8-0.6,5.4-1.6,7.8l0,0c0,0,0,0.1-0.1,0.1c-0.1,0.3-0.3,0.6-0.4,0.9c-1,1.7-2.4,2.3-2.4,2.3
					c-2.9,1-6.9-0.4-9.4-0.7c-2.6-0.3-4.2,1-4.2,4.7c0,1.6,0.2,3,0.4,4.2c0,0,1.2,4,1.4,4.5c0,0,0,0,0,0c0,0,0,0,0,0
					c0.2,0,0.3-0.1,0.5-0.1c0,0,0,0,0,0c2.1-0.3,4.2-0.9,6.1-1.8c0,0,0.1,0,0.1-0.1C42.3,42.4,48.1,33.9,48.1,24.1z"/>
			</g>
			<path id="XMLID_00000011730511133147351300000018221493654944991903_" class="st2" d="M48.1,27.5L48.1,27.5
				C48.1,27.5,48.1,27.5,48.1,27.5C48.1,27.5,48.1,27.5,48.1,27.5z"/>
		</g>
		<g>
			<path id="XMLID_00000145046012150502874710000005547267623611419834_" class="st3" d="M24,22c0,0,2.9,2.5,2.9,5.7
				S24,33.4,24,33.4s-3-2.3-3-5.7S24,22,24,22z"/>
			<path id="XMLID_00000039098857149107525580000004405137213893857185_" class="st3" d="M35.2,15c0,0,0.7,3.4-1,5.7
				c-1.7,2.3-5.3,2.6-5.3,2.6S28,20,29.9,17.5S35.2,15,35.2,15z"/>
			<path id="XMLID_00000131345302790102910490000011745868790187473318_" class="st3" d="M13.5,15c0,0-0.7,3.4,1,5.7
				s5.3,2.6,5.3,2.6s0.9-3.3-0.9-5.8C16.9,15,13.5,15,13.5,15z"/>
			<path id="XMLID_00000015327654294258178780000003962352378501053835_" class="st3" d="M6.9,29.4c0,0,3.3,2.9,6.9,2.5
				c3.6-0.4,6.1-4.1,6.1-4.1s-3-3.1-6.9-2.6S6.9,29.4,6.9,29.4z"/>
			<path id="XMLID_00000117641530836721621490000010055820133574742703_" class="st3" d="M24,20c0,0,3.3-2.9,3.3-6.5S24.1,7,24.1,7
				s-3.4,2.6-3.5,6.5S24,20,24,20z"/>
			<path id="XMLID_00000003821653766147751340000008615022362960091288_" class="st3" d="M41.1,29.4c0,0-3.3,2.9-6.9,2.5
				c-3.6-0.4-6.1-4.1-6.1-4.1s3-3.1,6.9-2.6S41.1,29.4,41.1,29.4z"/>
		</g>
	</g>
</g>
</svg>
